<?xml version="1.0" encoding="utf-8"?>
<!-- Generator: Adobe Illustrator 23.0.1, SVG Export Plug-In . SVG Version: 6.00 Build 0)  -->
<svg version="1.1" id="Layer_1" xmlns="http://www.w3.org/2000/svg" xmlns:xlink="http://www.w3.org/1999/xlink" x="0px" y="0px"
	 viewBox="0 0 1024 1024" style="enable-background:new 0 0 1024 1024;" xml:space="preserve">
<style type="text/css">
	.st0{fill:#D4EDFF;}
</style>
<path class="st0" d="M958.57,886.82c-100.51-70-201.02-140-301.52-209.99c19.09-6.65,38.2-13.33,57.29-19.98
	c102.71,71.4,205.46,142.83,308.17,214.23c0.91,2.55,2.82,9.04,0,15.65c-1.2,2.81-2.76,4.47-4.87,6.71
	c-2.43,2.58-9.21,9.82-20.23,11.65c-0.98,0.16-5.53,0.88-11.48-0.19C971.18,902.26,961.84,891.13,958.57,886.82z"/>
<path class="st0" d="M443.67,717.47c50.77,9.28,93.01,6.65,120.98,2.8c13.51-1.87,75.43-11.16,142.43-50.9
	c46.76-27.74,59.81-48.85,65-58.5c12.92-24.09,14.81-47.66,14.69-62.18C524.51,407.19,262.24,265.67,0,124.13
	C147.89,321.9,295.77,519.68,443.67,717.47z"/>
</svg>
