<?xml version="1.0" encoding="utf-8"?>
<!-- Generator: Adobe Illustrator 23.0.1, SVG Export Plug-In . SVG Version: 6.00 Build 0)  -->
<svg version="1.1" xmlns="http://www.w3.org/2000/svg" xmlns:xlink="http://www.w3.org/1999/xlink" x="0px" y="0px"
	 viewBox="0 0 1024 1024" style="enable-background:new 0 0 1024 1024;" xml:space="preserve">
<style type="text/css">
	.st0{fill:#00265A;}
	.st1{display:none;}
	.st2{display:inline;}
	.st3{fill:#5F5574;}
	.st4{fill:#929BAC;}
	.st5{fill:#FF5B5B;}
</style>
<g id="Layer_1">
	<path class="st0" d="M409.71,57.54c69.6-0.07,139.19-0.15,208.79-0.22c-25.14,157.49-50.27,314.97-75.41,472.46
		c-16.63-0.04-33.26-0.08-49.89-0.12C465.37,372.29,437.54,214.92,409.71,57.54z"/>
	<path class="st0" d="M0,240.12c59.68-34.77,119.36-69.54,179.04-104.3c61.9,147.55,123.81,295.11,185.71,442.66
		c-14.29,8.26-28.58,16.52-42.87,24.78C214.59,482.21,107.3,361.16,0,240.12z"/>
	<path class="st0" d="M836.87,122.98c62.38,30.03,124.76,60.05,187.13,90.08c-94.76,130.06-189.53,260.13-284.29,390.19
		c-14.88-7.22-29.76-14.45-44.64-21.67C742.34,428.71,789.6,275.85,836.87,122.98z"/>
</g>
<g id="Layer_2" class="st1">
	<g class="st2">
		<path class="st3" d="M513.36,992.32C388.37,938.71,263.38,885.1,138.39,831.49c8.11-16.22,16.22-32.45,24.34-48.66
			c-13.28-6.63-26.54-13.28-39.82-19.91c28.02-21.39,56.04-42.77,84.06-64.15c4.43-48.66,8.85-97.33,13.28-145.99
			c-31.71-77.42-63.42-154.84-95.12-232.26c75.95,38.34,151.89,76.68,227.84,115.02c53.45-1.2,106.89-2.39,160.34-3.6"/>
		<path class="st3" d="M513.36,992.32c124.67-53.61,249.34-107.23,374.01-160.84c-8.11-16.22-16.22-32.45-24.34-48.66
			c13.28-6.63,26.54-13.28,39.82-19.91c-28.02-21.39-56.04-42.77-84.06-64.15c-4.43-48.66-8.85-97.33-13.28-145.99
			c31.7-77.42,63.41-154.84,95.12-232.26c-75.95,38.34-151.89,76.68-227.84,115.02c-57.08-1.18-114.16-2.37-171.25-3.55"/>
		<g>
			<path class="st4" d="M242.35,654.53c11.06-17.69,22.12-35.39,33.18-53.09c58.25,33.18,116.5,66.36,174.75,99.54
				c-30.24,36.13-60.46,72.26-90.7,108.39C320.51,757.76,281.44,706.15,242.35,654.53z"/>
			<path class="st4" d="M783.42,654.53c-11.06-17.69-22.12-35.39-33.18-53.09c-58.25,33.18-116.5,66.36-174.75,99.54
				c30.24,36.13,60.46,72.26,90.7,108.39C705.26,757.76,744.33,706.15,783.42,654.53z"/>
		</g>
		<g>
			<path class="st4" d="M513.02,971.75c-37.81-15.78-75.62-31.56-113.42-47.35c16.22-58.98,32.45-117.98,48.66-176.96
				c23.62-0.07,47.22-0.14,70.84-0.21"/>
			<path class="st4" d="M513.02,971.75c37.73-15.78,75.44-31.56,113.15-47.35c-16.22-58.98-32.45-117.98-48.66-176.96
				c-21.56-0.08-43.12-0.15-64.68-0.23"/>
		</g>
		<g>
			<g>
				<path d="M512.48,867.03c-19.93-0.05-39.86-0.09-59.78-0.14c20.15,19.42,40.31,38.82,60.45,58.24"/>
			</g>
			<path d="M513.15,925.12c19.98-19.42,39.96-38.82,59.94-58.24c-20.56,0.05-41.12,0.09-61.67,0.14"/>
		</g>
		<g>
			<path class="st5" d="M328.62,667.8c22.86,16.22,45.71,32.45,68.57,48.66c-13.23,19.32-39.09,24.62-57.51,13.28
				C319.61,717.39,313.56,688.5,328.62,667.8z"/>
			<path class="st5" d="M697.14,667.8c-22.86,16.22-45.71,32.45-68.57,48.66c13.23,19.32,39.09,24.62,57.51,13.28
				C706.16,717.39,712.22,688.5,697.14,667.8z"/>
		</g>
	</g>
</g>
</svg>
