<?xml version="1.0" encoding="utf-8"?>
<!-- Generator: Adobe Illustrator 23.0.1, SVG Export Plug-In . SVG Version: 6.00 Build 0)  -->
<svg version="1.1" xmlns="http://www.w3.org/2000/svg" xmlns:xlink="http://www.w3.org/1999/xlink" x="0px" y="0px"
	 viewBox="0 0 1024 1024" style="enable-background:new 0 0 1024 1024;" xml:space="preserve">
<style type="text/css">
	.st0{fill:none;stroke:#FFB454;stroke-width:30;stroke-miterlimit:10;}
	.st1{display:none;}
	.st2{display:inline;}
	.st3{fill:none;stroke:#000000;stroke-miterlimit:10;}
	.st4{fill:#FCD8BB;}
	.st5{fill:#EE7E23;}
	.st6{fill:#FF5B5B;}
</style>
<g id="Layer_1">
	<ellipse class="st0" cx="512" cy="512" rx="473.26" ry="481.51"/>
</g>
<g id="Layer_2" class="st1">
	<g class="st2">
		<g>
			<path class="st3" d="M251.72,609.97"/>
			<path class="st3" d="M784.37,609.97"/>
			<path class="st3" d="M784.37,609.97"/>
			<path class="st3" d="M782.99,609.97"/>
			<g>
				<path d="M517.75,782.01c-19.11-17.26-38.23-34.53-57.35-51.79c19.26-0.05,38.5-0.12,57.76-0.17"/>
				<path d="M516.95,782.01c19.11-17.26,38.23-34.53,57.35-51.79c-19.26-0.05-38.5-0.12-57.76-0.17"/>
			</g>
			<path class="st4" d="M515.25,879.21C639,819.74,762.76,760.28,886.52,700.81c-28.14-36.33-56.28-72.65-84.41-108.98
				c-76.21,46.12-152.41,92.25-228.62,138.37c-19.2,17.43-38.41,34.86-57.61,52.29h1.34c-19.2-17.43-38.41-34.86-57.61-52.29
				c-76.2-46.12-152.41-92.25-228.61-138.37c-28.14,36.33-56.28,72.65-84.41,108.98c123.76,59.46,247.51,118.93,371.27,178.39"/>
			<path class="st5" d="M520.02,729.89c-19.86,0.05-39.74,0.09-59.61,0.15C384.21,683.91,308,637.79,231.8,591.67
				c0.04-129.79,0.08-259.59,0.12-389.38c42.42,37.42,84.83,74.85,127.25,112.28c53.97-0.01,107.94-0.01,161.92-0.01"/>
			<path class="st5" d="M514.69,729.89c19.86,0.05,39.74,0.09,59.61,0.15c76.2-46.12,152.4-92.25,228.61-138.37
				c-0.04-129.79-0.09-259.59-0.14-389.38c-42.42,37.42-84.83,74.85-127.24,112.29c-53.97,0-107.94-0.01-161.92-0.01"/>
			<g>
				<path d="M317.83,567.43c26.51-7.4,53.02-14.8,79.54-22.2c10.48,22.81,20.96,45.63,31.45,68.44c-17.26,0-34.53,0-51.79,0
					C357.28,598.27,337.54,582.85,317.83,567.43z"/>
				<path d="M716.89,567.43c-26.51-7.4-53.02-14.8-79.54-22.2c-10.48,22.81-20.96,45.63-31.45,68.44c17.26,0,34.53,0,51.79,0
					C677.43,598.27,697.16,582.85,716.89,567.43z"/>
			</g>
			<path class="st3" d="M428.8,613.67c10.54,38.85,21.07,77.69,31.61,116.53"/>
			<line class="st3" x1="605.91" y1="613.67" x2="574.3" y2="730.21"/>
		</g>
	</g>
</g>
<g id="Layer_3" class="st1">
	<g class="st2">
		<g>
			<path class="st3" d="M263.36,593.89"/>
			<path class="st3" d="M763.33,593.89"/>
			<path class="st3" d="M763.33,593.89"/>
			<path class="st3" d="M762.02,593.89"/>
			<g>
				<path d="M513.07,755.36c-17.94-16.21-35.88-32.41-53.82-48.61c18.07-0.05,36.14-0.11,54.21-0.16"/>
				<path d="M512.32,755.36c17.94-16.21,35.88-32.41,53.82-48.61c-18.07-0.05-36.14-0.11-54.21-0.16"/>
			</g>
			<path class="st4" d="M510.72,846.59c116.16-55.82,232.33-111.63,348.49-167.44c-26.42-34.09-52.82-68.19-79.23-102.29
				c-71.53,43.29-143.05,86.59-214.58,129.88c-18.02,16.36-36.06,32.72-54.08,49.08h1.26c-18.02-16.36-36.06-32.72-54.08-49.08
				c-71.52-43.29-143.05-86.59-214.58-129.88c-26.41,34.1-52.82,68.2-79.23,102.29c116.16,55.82,232.33,111.63,348.49,167.44"/>
			<g>
				<path class="st6" d="M515.2,706.44c-18.65,0.05-37.3,0.09-55.95,0.14C387.72,663.29,316.19,620,244.67,576.71
					c0.03-121.83,0.07-243.66,0.12-365.49c39.81,35.13,79.63,70.27,119.44,105.39c50.66-0.01,101.32-0.01,151.98-0.01"/>
				<path class="st6" d="M510.2,706.44c18.65,0.05,37.3,0.09,55.95,0.14C637.68,663.29,709.2,620,780.73,576.7
					c-0.04-121.83-0.08-243.66-0.13-365.49c-39.81,35.13-79.63,70.27-119.43,105.4c-50.66,0-101.32-0.01-151.98-0.01"/>
			</g>
			<g>
				<path d="M325.41,553.96c24.88-6.95,49.77-13.89,74.65-20.84c9.84,21.41,19.68,42.83,29.52,64.23c-16.21,0-32.41,0-48.61,0
					C362.44,582.9,343.92,568.42,325.41,553.96z"/>
				<path d="M699.99,553.96c-24.88-6.95-49.77-13.89-74.65-20.84c-9.84,21.41-19.68,42.83-29.52,64.23c16.21,0,32.41,0,48.61,0
					C662.95,582.9,681.47,568.42,699.99,553.96z"/>
			</g>
			<path class="st3" d="M429.58,597.36c9.89,36.46,19.77,72.92,29.67,109.38"/>
			<line class="st3" x1="595.82" y1="597.36" x2="566.15" y2="706.75"/>
		</g>
	</g>
</g>
</svg>
