<?xml version="1.0" encoding="utf-8"?>
<!-- Generator: Adobe Illustrator 23.0.1, SVG Export Plug-In . SVG Version: 6.00 Build 0)  -->
<svg version="1.1" xmlns="http://www.w3.org/2000/svg" xmlns:xlink="http://www.w3.org/1999/xlink" x="0px" y="0px"
	 viewBox="0 0 1024 1024" style="enable-background:new 0 0 1024 1024;" xml:space="preserve">
<style type="text/css">
	.st0{display:none;}
	.st1{fill:#5F1C37;}
	.st2{fill:#F4BFDD;}
	.st3{fill:none;stroke:#000000;stroke-miterlimit:10;}
	.st4{stroke:#000000;stroke-width:12;stroke-miterlimit:10;}
</style>
<g id="Layer_1">
	<g class="st0">
		
			<image style="display:inline;overflow:visible;enable-background:new    ;" width="229" height="195" xlink:href="FDEAE200.jpeg"  transform="matrix(3.1991 0 0 3.1991 153.7416 147.5281)">
		</image>
	</g>
	<g>
		<path class="st1" d="M512.1,690c-12.7-0.4-25.5-0.8-38.2-1.2c0.2-59.8,0.5-119.7,0.7-179.5c-38.4-53.7-76.8-107.4-115.3-161.1
			c-78.4,24.3-156.8,48.7-235.2,73c14.5-63.2,29-126.4,43.5-189.5C111.8,176.4,55.9,121.2,0,65.9C171.4,65,342.8,64,514.2,63.1"/>
		<path class="st1" d="M499.9,687.3c16.7,0.5,33.4,1,50.1,1.5c-0.2-59.8-0.5-119.7-0.7-179.5c38.4-53.7,76.8-107.4,115.3-161.1
			c78.4,24.3,156.8,48.7,235.2,73c-14.5-63.2-29-126.4-43.5-189.5C912.2,176.5,968.1,121.2,1024,66c-178.3-1-356.7-2-535-2.9"/>
	</g>
	<g>
		<path class="st2" d="M515.1,939C351.5,834.3,187.9,729.7,24.3,625c33.3-67.9,66.6-135.9,100-203.8c78.4-24.3,156.8-48.7,235.2-73
			c38.4,53.7,76.8,107.4,115.3,161.1c-0.2,67.8-0.5,135.7-0.7,203.5c-16.6,0.1-33.2,0.2-49.8,0.3c29.2,35.2,58.4,70.3,87.7,105.5"/>
		<path class="st2" d="M512.7,939.8c162.4-104.9,324.7-209.9,487-314.8c-33.3-67.9-66.6-135.9-100-203.8
			c-78.4-24.3-156.8-48.7-235.2-73c-38.4,53.7-76.8,107.4-115.3,161.1c0.2,67.8,0.5,135.7,0.7,203.5c16.6,0.1,33.2,0.2,49.8,0.3
			c-29.2,35.2-58.4,70.3-87.7,105.5"/>
	</g>
	<path class="st3" d="M511.9,741.5"/>
	<path class="st3" d="M512.1,738.6"/>
	<path class="st3" d="M511.9,880.9"/>
	<path d="M424.2,713.1c58.5,0,117.1,0,175.6,0c-29.3,35.2-58.6,70.3-87.9,105.5C482.6,783.5,453.4,748.3,424.2,713.1z"/>
	<rect x="464.9" y="687.3" class="st2" width="93.6" height="25.3"/>
</g>
<g id="Layer_2">
	<path class="st4" d="M298.7,607.4c30.9-15.2,61.9-30.3,92.8-45.5"/>
	<path class="st4" d="M290.6,535.6c33.6,7.3,67.3,14.7,100.9,22"/>
	<path class="st4" d="M724.7,607.4c-30.9-15.2-61.8-30.3-92.8-45.5"/>
	<path class="st4" d="M732.8,535.6c-33.7,7.3-67.3,14.7-100.9,22"/>
</g>
</svg>
