<?xml version="1.0" encoding="utf-8"?>
<!-- Generator: Adobe Illustrator 23.0.1, SVG Export Plug-In . SVG Version: 6.00 Build 0)  -->
<svg version="1.1" id="Layer_1" xmlns="http://www.w3.org/2000/svg" xmlns:xlink="http://www.w3.org/1999/xlink" x="0px" y="0px"
	 viewBox="0 0 1024 1024" style="enable-background:new 0 0 1024 1024;" xml:space="preserve">
<style type="text/css">
	.st0{display:none;}
	.st1{fill:#5F1C37;}
	.st2{fill:#F4BFDD;}
	.st3{fill:none;stroke:#000000;stroke-miterlimit:10;}
</style>
<g class="st0">
	
		<image style="display:inline;overflow:visible;enable-background:new    ;" width="229" height="195" xlink:href="FDEAE200.jpeg"  transform="matrix(3.1991 0 0 3.1991 153.7416 147.5281)">
	</image>
</g>
<g>
	<g>
		<path class="st1" d="M512.1,690c-12.7-0.4-25.5-0.8-38.2-1.2c0.2-59.8,0.5-119.7,0.7-179.5c-38.4-53.7-76.8-107.4-115.3-161.1
			c-78.4,24.3-156.8,48.7-235.2,73c14.5-63.2,29-126.4,43.5-189.5C111.8,176.4,55.9,121.2,0,65.9c171.4-0.9,342.8-1.9,514.2-2.8"/>
		<path class="st1" d="M499.9,687.3c16.7,0.5,33.4,1,50.1,1.5c-0.2-59.8-0.5-119.7-0.7-179.5c38.4-53.7,76.8-107.4,115.3-161.1
			c78.4,24.3,156.8,48.7,235.2,73c-14.5-63.2-29-126.4-43.5-189.5c55.9-55.2,111.8-110.5,167.7-165.7c-178.3-1-356.7-2-535-2.9"/>
	</g>
	<g>
		<path class="st2" d="M515.1,939C351.5,834.3,187.9,729.7,24.3,625c33.3-67.9,66.6-135.9,100-203.8c78.4-24.3,156.8-48.7,235.2-73
			c38.4,53.7,76.8,107.4,115.3,161.1c-0.2,67.8-0.5,135.7-0.7,203.5c-16.6,0.1-33.2,0.2-49.8,0.3c29.2,35.2,58.4,70.3,87.7,105.5"/>
		<path class="st2" d="M512.7,939.8c162.4-104.9,324.7-209.9,487-314.8c-33.3-67.9-66.6-135.9-100-203.8
			c-78.4-24.3-156.8-48.7-235.2-73c-38.4,53.7-76.8,107.4-115.3,161.1c0.2,67.8,0.5,135.7,0.7,203.5c16.6,0.1,33.2,0.2,49.8,0.3
			c-29.2,35.2-58.4,70.3-87.7,105.5"/>
	</g>
	<g>
		<path d="M309.1,555.6c-3.5-24.8,12.9-46.1,31.4-48.6c20.4-2.8,43.5,17.2,42.6,45.1c0.4,7.7,0.8,15.4,1.1,23.2
			c-0.4,23-16.1,40.9-33.6,42.8c-21.9,2.4-41.5-20.8-41.5-38.2C309.1,571.8,309.1,563.7,309.1,555.6z"/>
		<path d="M714.3,555.6c3.5-24.8-12.8-46.1-31.4-48.6c-20.4-2.8-43.5,17.2-42.6,45.1c-0.4,7.7-0.8,15.4-1.1,23.2
			c0.4,23,16.1,40.9,33.6,42.8c21.9,2.4,41.5-20.8,41.5-38.2C714.3,571.8,714.3,563.7,714.3,555.6z"/>
	</g>
	<path class="st3" d="M511.9,741.5"/>
	<path class="st3" d="M512.1,738.6"/>
	<path class="st3" d="M511.9,880.9"/>
	<path d="M424.2,713.1c58.5,0,117.1,0,175.6,0c-29.3,35.2-58.6,70.3-87.9,105.5C482.6,783.5,453.4,748.3,424.2,713.1z"/>
	<rect x="464.9" y="687.3" class="st2" width="93.6" height="25.3"/>
</g>
</svg>
