<?xml version="1.0" encoding="utf-8"?>
<!-- Generator: Adobe Illustrator 23.0.1, SVG Export Plug-In . SVG Version: 6.00 Build 0)  -->
<svg version="1.1" id="Layer_1" xmlns="http://www.w3.org/2000/svg" xmlns:xlink="http://www.w3.org/1999/xlink" x="0px" y="0px"
	 viewBox="0 0 1024 1024" style="enable-background:new 0 0 1024 1024;" xml:space="preserve">
<style type="text/css">
	.st0{fill:#153836;}
	.st1{fill:#FFFFFF;stroke:#D4EDFF;stroke-width:2;stroke-miterlimit:10;}
	.st2{fill:#D4EDFF;}
	.st3{fill:#2B0017;}
</style>
<path class="st0" d="M350.72,684.89c61.95-226.7,123.89-453.43,185.83-680.12c61.95,221.37,123.89,442.74,185.83,664.11
	c-15.44,17.64-44.02,45.52-87.79,64.34c-76.44,32.87-146.6,15.45-172.9,8.52C411.13,728.41,374.04,703.87,350.72,684.89z"/>
<path class="st1" d="M395.14,455.89c7.71,8.9,20.46,21.54,39.19,32.2c2.59,1.48,18.46,10.37,37.63,15.08
	c54.7,13.42,105.98-14.8,122.14-23.64c33.88-18.54,55.41-42.31,66.97-57.14C622.99,283.18,584.89,143.98,546.82,4.76
	c-0.36-0.41-3.19-3.46-7.62-3.23c-3.41,0.18-6.47,2.23-8.05,5.37C485.83,156.55,440.48,306.21,395.14,455.89z"/>
<path class="st2" d="M452.22,496.68c29-165.05,57.99-330.1,86.98-495.13c-0.96,0.13-2.58,0.45-4.29,1.5
	c-2.12,1.3-3.26,2.99-3.77,3.85c-45.34,149.66-90.67,299.33-136.03,448.99c6.65,7.69,16.19,17.17,29.21,25.99
	C434.53,488.75,444.18,493.43,452.22,496.68z"/>
<path class="st3" d="M530.32,934.78"/>
<path class="st3" d="M558.46,751.78c0.38,86.26,0.74,172.52,1.11,258.79c-4.71,8.39-13.63,13.55-23.2,13.43
	c-14.75-0.18-22.19-12.81-22.51-13.37c-0.44-86.46-0.88-172.92-1.32-259.38c7.24,0.67,15.16,1.11,23.65,1.19
	C544.15,752.52,551.59,752.26,558.46,751.78z"/>
</svg>
